<svg width="100" height="100" viewBox="0 0 100 100" fill="none" xmlns="http://www.w3.org/2000/svg">
<g id="flat-color-icons:add-image">
<path id="Vector" d="M83.3333 85.4166H16.6666C12.0833 85.4166 8.33325 81.6666 8.33325 77.0832V22.9166C8.33325 18.3333 12.0833 14.5833 16.6666 14.5833H83.3333C87.9166 14.5833 91.6666 18.3333 91.6666 22.9166V77.0832C91.6666 81.6666 87.9166 85.4166 83.3333 85.4166Z" fill="#8CBCD6"/>
<path id="Vector_2" d="M72.9167 39.5833C76.3685 39.5833 79.1667 36.785 79.1667 33.3333C79.1667 29.8815 76.3685 27.0833 72.9167 27.0833C69.465 27.0833 66.6667 29.8815 66.6667 33.3333C66.6667 36.785 69.465 39.5833 72.9167 39.5833Z" fill="#B3DDF5"/>
<path id="Vector_3" d="M41.6667 33.3333L18.75 66.6666H64.5833L41.6667 33.3333Z" fill="#9AC9E3"/>
<path id="Vector_4" d="M64.5834 45.8333L47.9167 66.6666H81.2501L64.5834 45.8333Z" fill="#B3DDF5"/>
<path id="Vector_5" d="M79.1666 99.9999C90.6725 99.9999 99.9999 90.6725 99.9999 79.1666C99.9999 67.6607 90.6725 58.3333 79.1666 58.3333C67.6607 58.3333 58.3333 67.6607 58.3333 79.1666C58.3333 90.6725 67.6607 99.9999 79.1666 99.9999Z" fill="#43A047"/>
<g id="Group">
<path id="Vector_6" d="M75 66.6667H83.3333V91.6667H75V66.6667Z" fill="white"/>
<path id="Vector_7" d="M66.6667 75H91.6667V83.3333H66.6667V75Z" fill="white"/>
</g>
</g>
</svg>
