<svg width="34" height="34" viewBox="0 0 34 34" fill="none" xmlns="http://www.w3.org/2000/svg">
<g id="uil:calender">
<path id="Vector" d="M26.9168 5.66671H24.0835V4.25004C24.0835 3.87432 23.9342 3.51398 23.6686 3.24831C23.4029 2.98263 23.0426 2.83337 22.6668 2.83337C22.2911 2.83337 21.9308 2.98263 21.6651 3.24831C21.3994 3.51398 21.2502 3.87432 21.2502 4.25004V5.66671H12.7502V4.25004C12.7502 3.87432 12.6009 3.51398 12.3352 3.24831C12.0696 2.98263 11.7092 2.83337 11.3335 2.83337C10.9578 2.83337 10.5974 2.98263 10.3318 3.24831C10.0661 3.51398 9.91683 3.87432 9.91683 4.25004V5.66671H7.0835C5.95633 5.66671 4.87532 6.11447 4.07829 6.9115C3.28126 7.70853 2.8335 8.78954 2.8335 9.91671V26.9167C2.8335 28.0439 3.28126 29.1249 4.07829 29.9219C4.87532 30.7189 5.95633 31.1667 7.0835 31.1667H26.9168C28.044 31.1667 29.125 30.7189 29.922 29.9219C30.7191 29.1249 31.1668 28.0439 31.1668 26.9167V9.91671C31.1668 8.78954 30.7191 7.70853 29.922 6.9115C29.125 6.11447 28.044 5.66671 26.9168 5.66671ZM28.3335 26.9167C28.3335 27.2924 28.1842 27.6528 27.9186 27.9184C27.6529 28.1841 27.2926 28.3334 26.9168 28.3334H7.0835C6.70777 28.3334 6.34744 28.1841 6.08176 27.9184C5.81609 27.6528 5.66683 27.2924 5.66683 26.9167V17H28.3335V26.9167ZM28.3335 14.1667H5.66683V9.91671C5.66683 9.54098 5.81609 9.18065 6.08176 8.91497C6.34744 8.6493 6.70777 8.50004 7.0835 8.50004H9.91683V9.91671C9.91683 10.2924 10.0661 10.6528 10.3318 10.9184C10.5974 11.1841 10.9578 11.3334 11.3335 11.3334C11.7092 11.3334 12.0696 11.1841 12.3352 10.9184C12.6009 10.6528 12.7502 10.2924 12.7502 9.91671V8.50004H21.2502V9.91671C21.2502 10.2924 21.3994 10.6528 21.6651 10.9184C21.9308 11.1841 22.2911 11.3334 22.6668 11.3334C23.0426 11.3334 23.4029 11.1841 23.6686 10.9184C23.9342 10.6528 24.0835 10.2924 24.0835 9.91671V8.50004H26.9168C27.2926 8.50004 27.6529 8.6493 27.9186 8.91497C28.1842 9.18065 28.3335 9.54098 28.3335 9.91671V14.1667Z" fill="#545454"/>
</g>
</svg>
