<svg width="34" height="34" viewBox="0 0 34 34" fill="none" xmlns="http://www.w3.org/2000/svg">
<g id="mdi:clock-outline">
<path id="Vector" d="M17.0002 28.3334C20.0059 28.3334 22.8886 27.1393 25.014 25.0139C27.1395 22.8885 28.3335 20.0058 28.3335 17C28.3335 13.9943 27.1395 11.1116 25.014 8.98616C22.8886 6.86075 20.0059 5.66671 17.0002 5.66671C13.9944 5.66671 11.1117 6.86075 8.98629 8.98616C6.86087 11.1116 5.66683 13.9943 5.66683 17C5.66683 20.0058 6.86087 22.8885 8.98629 25.0139C11.1117 27.1393 13.9944 28.3334 17.0002 28.3334ZM17.0002 2.83337C18.8606 2.83337 20.7027 3.19981 22.4215 3.91175C24.1403 4.62369 25.702 5.6672 27.0175 6.98269C28.333 8.29819 29.3765 9.85991 30.0885 11.5787C30.8004 13.2975 31.1668 15.1396 31.1668 17C31.1668 20.7573 29.6743 24.3606 27.0175 27.0174C24.3607 29.6742 20.7574 31.1667 17.0002 31.1667C9.166 31.1667 2.8335 24.7917 2.8335 17C2.8335 13.2428 4.32605 9.63946 6.98282 6.98269C9.63958 4.32593 13.2429 2.83337 17.0002 2.83337ZM17.7085 9.91671V17.3542L24.0835 21.1367L23.021 22.8792L15.5835 18.4167V9.91671H17.7085Z" fill="#545454"/>
</g>
</svg>
