<svg width="34" height="34" viewBox="0 0 34 34" fill="none" xmlns="http://www.w3.org/2000/svg">
<g id="mdi:account-cash-outline" clip-path="url(#clip0_439_6253)">
<path id="Vector" d="M22.6667 16.2917C22.6667 15.3524 23.0398 14.4515 23.704 13.7873C24.3682 13.1231 25.269 12.75 26.2083 12.75C27.1476 12.75 28.0485 13.1231 28.7127 13.7873C29.3769 14.4515 29.75 15.3524 29.75 16.2917C29.75 17.231 29.3769 18.1318 28.7127 18.796C28.0485 19.4602 27.1476 19.8333 26.2083 19.8333C25.269 19.8333 24.3682 19.4602 23.704 18.796C23.0398 18.1318 22.6667 17.231 22.6667 16.2917ZM18.4167 4.25V28.3333H34V4.25H18.4167ZM31.1667 22.6667C29.6083 22.6667 28.3333 23.9417 28.3333 25.5H24.0833C24.0833 24.7486 23.7848 24.0279 23.2535 23.4965C22.7221 22.9652 22.0014 22.6667 21.25 22.6667V9.91667C22.8225 9.91667 24.0833 8.65583 24.0833 7.08333H28.3333C28.3333 7.83478 28.6318 8.55545 29.1632 9.0868C29.6945 9.61816 30.4152 9.91667 31.1667 9.91667V22.6667ZM9.91667 8.5C11.475 8.5 12.75 9.775 12.75 11.3333C12.75 12.8917 11.475 14.1667 9.91667 14.1667C8.35833 14.1667 7.08333 12.8917 7.08333 11.3333C7.08333 9.775 8.35833 8.5 9.91667 8.5ZM9.91667 5.66667C6.78583 5.66667 4.25 8.2025 4.25 11.3333C4.25 14.4642 6.78583 17 9.91667 17C13.0475 17 15.5833 14.4642 15.5833 11.3333C15.5833 8.2025 13.0475 5.66667 9.91667 5.66667ZM9.91667 19.8333C4.43417 19.8333 0 22.3692 0 25.5V28.3333H15.5833V25.5H2.83333C2.83333 24.6783 5.3125 22.6667 9.91667 22.6667C12.5092 22.6667 14.4075 23.3042 15.5833 24.0125V20.8533C13.9825 20.2158 12.0417 19.8333 9.91667 19.8333Z" fill="#78D596"/>
</g>
<defs>
<clipPath id="clip0_439_6253">
<rect width="34" height="34" fill="white"/>
</clipPath>
</defs>
</svg>
