<svg width="26" height="34" viewBox="0 0 26 34" fill="none" xmlns="http://www.w3.org/2000/svg">
<g id="fa6-solid:file-invoice-dollar" clip-path="url(#clip0_439_6268)">
<path id="Vector" d="M4.25 0C1.90586 0 0 1.90586 0 4.25V29.75C0 32.0941 1.90586 34 4.25 34H21.25C23.5941 34 25.5 32.0941 25.5 29.75V10.625H17C15.8246 10.625 14.875 9.67539 14.875 8.5V0H4.25ZM17 0V8.5H25.5L17 0ZM4.25 5.3125C4.25 4.72813 4.72813 4.25 5.3125 4.25H9.5625C10.1469 4.25 10.625 4.72813 10.625 5.3125C10.625 5.89687 10.1469 6.375 9.5625 6.375H5.3125C4.72813 6.375 4.25 5.89687 4.25 5.3125ZM4.25 9.5625C4.25 8.97812 4.72813 8.5 5.3125 8.5H9.5625C10.1469 8.5 10.625 8.97812 10.625 9.5625C10.625 10.1469 10.1469 10.625 9.5625 10.625H5.3125C4.72813 10.625 4.25 10.1469 4.25 9.5625ZM12.75 14.3438C13.3344 14.3438 13.8125 14.8219 13.8125 15.4062V16.5551C14.377 16.6348 14.9215 16.7609 15.4129 16.8937C15.9773 17.0465 16.316 17.6242 16.1633 18.1953C16.0105 18.7664 15.4328 19.0984 14.8617 18.9457C14.1246 18.7465 13.4008 18.6004 12.7301 18.5938C12.1723 18.5871 11.5746 18.7133 11.1629 18.959C10.7844 19.1848 10.625 19.4437 10.625 19.809C10.625 20.0547 10.7113 20.2406 11.1098 20.4797C11.568 20.752 12.2121 20.9512 13.0488 21.2035L13.082 21.2102C13.8324 21.4359 14.7621 21.7148 15.4926 22.1797C16.2961 22.6844 16.9801 23.4879 17 24.7164C17.0199 25.998 16.3625 26.9277 15.4793 27.4789C14.968 27.7977 14.3902 27.9836 13.8125 28.0832V29.2188C13.8125 29.8031 13.3344 30.2812 12.75 30.2812C12.1656 30.2812 11.6875 29.8031 11.6875 29.2188V28.0367C10.9438 27.8973 10.2465 27.6582 9.63555 27.4457C9.49609 27.3992 9.35664 27.3527 9.22383 27.3063C8.66602 27.1203 8.36719 26.516 8.55313 25.9648C8.73906 25.4137 9.34336 25.1082 9.89453 25.2941C10.0605 25.3473 10.2133 25.4004 10.366 25.4535C11.2691 25.759 11.9996 26.0113 12.7766 26.0312C13.3809 26.0512 13.9652 25.9184 14.3504 25.6793C14.6891 25.4668 14.875 25.1945 14.8684 24.7496C14.8617 24.4441 14.7488 24.2316 14.357 23.9793C13.9055 23.6938 13.2613 23.4879 12.4312 23.2355L12.325 23.2023C11.5945 22.9832 10.7113 22.7176 10.0141 22.2926C9.21719 21.8145 8.51328 21.0375 8.50664 19.8156C8.5 18.5273 9.22383 17.6375 10.0871 17.1262C10.5852 16.834 11.1363 16.648 11.6875 16.5484V15.4062C11.6875 14.8219 12.1656 14.3438 12.75 14.3438Z" fill="#545454"/>
</g>
<defs>
<clipPath id="clip0_439_6268">
<rect width="25.5" height="34" fill="white"/>
</clipPath>
</defs>
</svg>
