<svg width="31" height="31" viewBox="0 0 31 31" fill="none" xmlns="http://www.w3.org/2000/svg">
<g id="ph:trend-up-bold">
<path id="Vector" d="M29.5469 6.78125V14.5312C29.5469 14.9166 29.3938 15.2862 29.1213 15.5588C28.8488 15.8313 28.4792 15.9844 28.0938 15.9844C27.7084 15.9844 27.3388 15.8313 27.0663 15.5588C26.7938 15.2862 26.6407 14.9166 26.6407 14.5312V10.293L17.4981 19.4355C17.3631 19.571 17.2027 19.6785 17.026 19.7518C16.8494 19.8252 16.66 19.8629 16.4688 19.8629C16.2775 19.8629 16.0882 19.8252 15.9115 19.7518C15.7349 19.6785 15.5745 19.571 15.4395 19.4355L11.625 15.6211L3.93557 23.3105C3.66136 23.5812 3.29157 23.733 2.90628 23.733C2.52098 23.733 2.1512 23.5812 1.87698 23.3105C1.74151 23.1755 1.63402 23.0151 1.56068 22.8385C1.48734 22.6619 1.44958 22.4725 1.44958 22.2812C1.44958 22.09 1.48734 21.9006 1.56068 21.724C1.63402 21.5474 1.74151 21.387 1.87698 21.252L10.5957 12.5332C10.7307 12.3977 10.8911 12.2902 11.0678 12.2169C11.2444 12.1436 11.4338 12.1058 11.625 12.1058C11.8163 12.1058 12.0056 12.1436 12.1823 12.2169C12.3589 12.2902 12.5193 12.3977 12.6543 12.5332L16.4688 16.3477L24.5821 8.23437H20.3438C19.9584 8.23437 19.5888 8.08128 19.3163 7.80876C19.0438 7.53625 18.8907 7.16664 18.8907 6.78125C18.8907 6.39586 19.0438 6.02625 19.3163 5.75374C19.5888 5.48122 19.9584 5.32813 20.3438 5.32813H28.0938C28.4792 5.32812 28.8488 5.48122 29.1213 5.75374C29.3938 6.02625 29.5469 6.39586 29.5469 6.78125Z" fill="#13AF36"/>
</g>
</svg>
