<svg width="34" height="34" viewBox="0 0 34 34" fill="none" xmlns="http://www.w3.org/2000/svg">
<g id="mdi:auto-pay">
<path id="Vector" d="M24.7918 23.8283L28.2485 25.8258L27.186 27.6675L22.6668 25.0608V19.8333H24.7918V23.8283ZM34.0002 24.0833C34.0002 29.5658 29.566 34 24.0835 34C18.601 34 14.1668 29.5658 14.1668 24.0833C14.1668 23.6017 14.2093 23.1342 14.2802 22.6667H2.8335V5.66667H28.3335V15.13C31.6768 16.7308 34.0002 20.1308 34.0002 24.0833ZM15.1302 19.8333C15.3852 19.3233 15.6543 18.8417 15.9802 18.3742C15.8527 18.4167 15.7252 18.4167 15.5835 18.4167C13.2318 18.4167 11.3335 16.5183 11.3335 14.1667C11.3335 11.815 13.2318 9.91667 15.5835 9.91667C17.9352 9.91667 19.8335 11.815 19.8335 14.1667C19.8335 14.5208 19.7768 14.875 19.6918 15.2008C21.0235 14.5492 22.511 14.1667 24.0835 14.1667C24.5652 14.1667 25.0327 14.2092 25.5002 14.28V11.3333C24.7487 11.3333 24.028 11.0348 23.4967 10.5035C22.9653 9.97212 22.6668 9.25145 22.6668 8.5H8.50016C8.50016 10.0725 7.23933 11.3333 5.66683 11.3333V17C6.41828 17 7.13895 17.2985 7.6703 17.8299C8.20165 18.3612 8.50016 19.0819 8.50016 19.8333H15.1302ZM31.1668 24.0833C31.1668 20.1733 27.9935 17 24.0835 17C20.1735 17 17.0002 20.1733 17.0002 24.0833C17.0002 27.9933 20.1735 31.1667 24.0835 31.1667C27.9935 31.1667 31.1668 27.9933 31.1668 24.0833Z" fill="#545454"/>
</g>
</svg>
