<svg width="19" height="24" viewBox="0 0 19 24" fill="none" xmlns="http://www.w3.org/2000/svg">
<path d="M1.99967 8.34166H8.34134V1.99999H16.9997V8.98333H18.6663V1.99999C18.6663 1.55797 18.4907 1.13404 18.1782 0.821484C17.8656 0.508923 17.4417 0.333328 16.9997 0.333328H6.05801L0.333008 6.05833V22C0.333008 22.442 0.508602 22.8659 0.821163 23.1785C1.13372 23.4911 1.55765 23.6667 1.99967 23.6667H16.9997C17.4417 23.6667 17.8656 23.4911 18.1782 23.1785C18.4907 22.8659 18.6663 22.442 18.6663 22H1.99967V8.34166ZM1.99967 6.74166L6.74134 1.99999H6.99967V6.99999H1.99967V6.74166Z" fill="white"/>
</svg>
