<svg width="22" height="22" viewBox="0 0 22 22" fill="none" xmlns="http://www.w3.org/2000/svg">
<g id="akar-icons:edit">
<g id="Group">
<path id="Vector" d="M15.1018 4.95733L17.0433 6.89791M16.3503 3.24774L11.1006 8.49749C10.8293 8.76837 10.6443 9.11348 10.5689 9.48933L10.084 11.9167L12.5113 11.4308C12.8872 11.3557 13.2318 11.1714 13.5032 10.9001L18.7529 5.65033C18.9107 5.49257 19.0358 5.30529 19.1212 5.09917C19.2065 4.89305 19.2505 4.67214 19.2505 4.44904C19.2505 4.22593 19.2065 4.00502 19.1212 3.7989C19.0358 3.59278 18.9107 3.4055 18.7529 3.24774C18.5951 3.08999 18.4079 2.96485 18.2017 2.87947C17.9956 2.7941 17.7747 2.75015 17.5516 2.75015C17.3285 2.75015 17.1076 2.7941 16.9015 2.87947C16.6954 2.96485 16.5081 3.08999 16.3503 3.24774Z" stroke="#545454" stroke-width="1.5" stroke-linecap="round" stroke-linejoin="round"/>
<path id="Vector_2" d="M17.417 13.75V16.5C17.417 16.9862 17.2238 17.4525 16.88 17.7963C16.5362 18.1402 16.0699 18.3333 15.5837 18.3333H5.50033C5.0141 18.3333 4.54778 18.1402 4.20396 17.7963C3.86015 17.4525 3.66699 16.9862 3.66699 16.5V6.41665C3.66699 5.93042 3.86015 5.4641 4.20396 5.12028C4.54778 4.77647 5.0141 4.58331 5.50033 4.58331H8.25033" stroke="#545454" stroke-width="1.5" stroke-linecap="round" stroke-linejoin="round"/>
</g>
</g>
</svg>
