<svg width="30" height="30" viewBox="0 0 30 30" fill="none" xmlns="http://www.w3.org/2000/svg">
<g id="clarity:export-line" clip-path="url(#clip0_439_6658)">
<path id="Vector" d="M5.00016 11.3417H11.3418V5.00004H20.0002V11.9834H21.6668V5.00004C21.6668 4.55801 21.4912 4.13409 21.1787 3.82153C20.8661 3.50897 20.4422 3.33337 20.0002 3.33337H9.0585L3.3335 9.05837V25C3.3335 25.4421 3.50909 25.866 3.82165 26.1786C4.13421 26.4911 4.55814 26.6667 5.00016 26.6667H20.0002C20.4422 26.6667 20.8661 26.4911 21.1787 26.1786C21.4912 25.866 21.6668 25.4421 21.6668 25H5.00016V11.3417ZM5.00016 9.74171L9.74183 5.00004H10.0002V10H5.00016V9.74171Z" fill="white"/>
<path id="Vector_2" d="M23.5998 13.6249C23.4404 13.4884 23.2354 13.4171 23.0256 13.4252C22.8159 13.4333 22.6169 13.5202 22.4685 13.6686C22.3201 13.8171 22.2332 14.016 22.2251 14.2257C22.217 14.4355 22.2883 14.6405 22.4248 14.7999L25.1332 17.4999H14.9998C14.7788 17.4999 14.5669 17.5877 14.4106 17.744C14.2543 17.9003 14.1665 18.1123 14.1665 18.3333C14.1665 18.5543 14.2543 18.7663 14.4106 18.9225C14.5669 19.0788 14.7788 19.1666 14.9998 19.1666H25.1582L22.4248 21.8999C22.3376 21.9746 22.2668 22.0666 22.2167 22.17C22.1667 22.2734 22.1386 22.386 22.1342 22.5007C22.1297 22.6155 22.1491 22.7299 22.191 22.8369C22.2329 22.9438 22.2964 23.0409 22.3776 23.1222C22.4588 23.2034 22.556 23.2669 22.6629 23.3088C22.7698 23.3507 22.8843 23.37 22.999 23.3656C23.1138 23.3612 23.2264 23.3331 23.3298 23.283C23.4332 23.233 23.5251 23.1622 23.5998 23.0749L28.3332 18.3333L23.5998 13.6249Z" fill="white"/>
</g>
<defs>
<clipPath id="clip0_439_6658">
<rect width="30" height="30" fill="white"/>
</clipPath>
</defs>
</svg>
