<svg width="26" height="26" viewBox="0 0 26 26" fill="none" xmlns="http://www.w3.org/2000/svg">
<g id="ion:eye">
<path id="Vector" d="M13 16.25C14.7949 16.25 16.25 14.7949 16.25 13C16.25 11.2051 14.7949 9.75 13 9.75C11.2051 9.75 9.75 11.2051 9.75 13C9.75 14.7949 11.2051 16.25 13 16.25Z" fill="#545454"/>
<path id="Vector_2" d="M24.9255 12.1164C23.5818 10.0384 21.8385 8.27328 19.8845 7.01137C17.7227 5.61387 15.336 4.875 12.9828 4.875C10.8236 4.875 8.70039 5.49199 6.67218 6.70871C4.60386 7.9493 2.73004 9.76168 1.1025 12.0951C0.918763 12.3588 0.817573 12.6712 0.811786 12.9925C0.805999 13.3139 0.895877 13.6297 1.07 13.8998C2.41113 15.9986 4.13718 17.7663 6.06078 19.011C8.2266 20.4141 10.5575 21.125 12.9828 21.125C15.3548 21.125 17.7466 20.3922 19.8992 19.0064C21.8522 17.7486 23.592 15.9768 24.9306 13.8816C25.0987 13.6177 25.1876 13.3111 25.1867 12.9982C25.1858 12.6854 25.0951 12.3793 24.9255 12.1164ZM13 17.875C12.0359 17.875 11.0933 17.5891 10.2916 17.0534C9.48994 16.5177 8.8651 15.7564 8.49612 14.8656C8.12715 13.9748 8.03061 12.9946 8.21871 12.0489C8.40681 11.1033 8.87111 10.2346 9.55289 9.55285C10.2347 8.87107 11.1033 8.40677 12.049 8.21867C12.9946 8.03057 13.9748 8.12711 14.8656 8.49609C15.7564 8.86506 16.5178 9.48991 17.0535 10.2916C17.5891 11.0933 17.875 12.0358 17.875 13C17.8736 14.2925 17.3595 15.5316 16.4455 16.4455C15.5316 17.3594 14.2925 17.8735 13 17.875Z" fill="#545454"/>
</g>
</svg>
