<svg width="25" height="25" viewBox="0 0 25 25" fill="none" xmlns="http://www.w3.org/2000/svg">
<g id="mdi:filter">
<path id="Vector" d="M14.5829 12.5V20.7083C14.6245 21.0208 14.5204 21.3542 14.2808 21.5729C14.1844 21.6695 14.0699 21.7461 13.9439 21.7984C13.8179 21.8506 13.6828 21.8775 13.5464 21.8775C13.41 21.8775 13.2749 21.8506 13.1489 21.7984C13.0229 21.7461 12.9084 21.6695 12.812 21.5729L10.7183 19.4792C10.6047 19.3681 10.5183 19.2323 10.4659 19.0823C10.4135 18.9323 10.3965 18.7722 10.4162 18.6146V12.5H10.3849L4.38494 4.8125C4.21578 4.59534 4.13946 4.32006 4.17264 4.0468C4.20582 3.77354 4.34581 3.52453 4.56203 3.35417C4.75994 3.20833 4.97869 3.125 5.20786 3.125H19.7912C20.0204 3.125 20.2391 3.20833 20.437 3.35417C20.6532 3.52453 20.7932 3.77354 20.8264 4.0468C20.8596 4.32006 20.7833 4.59534 20.6141 4.8125L14.6141 12.5H14.5829Z" fill="white"/>
</g>
</svg>
