<svg width="31" height="31" viewBox="0 0 31 31" fill="none" xmlns="http://www.w3.org/2000/svg">
<g id="gg:menu-round">
<g id="Group">
<path id="Vector" d="M10.3334 9.01971C9.99084 9.01971 9.6623 9.1558 9.42007 9.39803C9.17783 9.64027 9.04175 9.96881 9.04175 10.3114C9.04175 10.654 9.17783 10.9825 9.42007 11.2247C9.6623 11.467 9.99084 11.603 10.3334 11.603H20.6667C21.0093 11.603 21.3379 11.467 21.5801 11.2247C21.8223 10.9825 21.9584 10.654 21.9584 10.3114C21.9584 9.96881 21.8223 9.64027 21.5801 9.39803C21.3379 9.1558 21.0093 9.01971 20.6667 9.01971H10.3334ZM9.04175 15.5C9.04175 15.1574 9.17783 14.8289 9.42007 14.5867C9.6623 14.3444 9.99084 14.2083 10.3334 14.2083H20.6667C21.0093 14.2083 21.3379 14.3444 21.5801 14.5867C21.8223 14.8289 21.9584 15.1574 21.9584 15.5C21.9584 15.8426 21.8223 16.1711 21.5801 16.4134C21.3379 16.6556 21.0093 16.7917 20.6667 16.7917H10.3334C9.99084 16.7917 9.6623 16.6556 9.42007 16.4134C9.17783 16.1711 9.04175 15.8426 9.04175 15.5ZM10.3334 19.397C9.99084 19.397 9.6623 19.5331 9.42007 19.7753C9.17783 20.0175 9.04175 20.3461 9.04175 20.6886C9.04175 21.0312 9.17783 21.3597 9.42007 21.602C9.6623 21.8442 9.99084 21.9803 10.3334 21.9803H20.6667C21.0093 21.9803 21.3379 21.8442 21.5801 21.602C21.8223 21.3597 21.9584 21.0312 21.9584 20.6886C21.9584 20.3461 21.8223 20.0175 21.5801 19.7753C21.3379 19.5331 21.0093 19.397 20.6667 19.397H10.3334Z" fill="#545454"/>
<path id="Vector_2" fill-rule="evenodd" clip-rule="evenodd" d="M28.4167 15.5C28.4167 22.6339 22.6339 28.4167 15.5 28.4167C8.36617 28.4167 2.58337 22.6339 2.58337 15.5C2.58337 8.36614 8.36617 2.58334 15.5 2.58334C22.6339 2.58334 28.4167 8.36614 28.4167 15.5ZM25.8334 15.5C25.8334 18.2406 24.7447 20.8689 22.8068 22.8068C20.8689 24.7447 18.2406 25.8333 15.5 25.8333C12.7595 25.8333 10.1311 24.7447 8.19327 22.8068C6.25539 20.8689 5.16671 18.2406 5.16671 15.5C5.16671 12.7594 6.25539 10.1311 8.19327 8.19324C10.1311 6.25536 12.7595 5.16668 15.5 5.16668C18.2406 5.16668 20.8689 6.25536 22.8068 8.19324C24.7447 10.1311 25.8334 12.7594 25.8334 15.5Z" fill="#545454"/>
</g>
</g>
</svg>
