<svg width="34" height="34" viewBox="0 0 34 34" fill="none" xmlns="http://www.w3.org/2000/svg">
<g id="carbon:view">
<path id="Vector" d="M32.8738 16.6388C31.6241 13.4063 29.4546 10.6108 26.6335 8.59784C23.8124 6.5849 20.4632 5.44273 17 5.3125C13.5368 5.44273 10.1877 6.5849 7.36656 8.59784C4.54543 10.6108 2.37596 13.4063 1.12629 16.6388C1.04189 16.8722 1.04189 17.1278 1.12629 17.3612C2.37596 20.5937 4.54543 23.3892 7.36656 25.4022C10.1877 27.4151 13.5368 28.5573 17 28.6875C20.4632 28.5573 23.8124 27.4151 26.6335 25.4022C29.4546 23.3892 31.6241 20.5937 32.8738 17.3612C32.9582 17.1278 32.9582 16.8722 32.8738 16.6388ZM17 26.5625C11.3688 26.5625 5.41879 22.3869 3.26191 17C5.41879 11.6131 11.3688 7.4375 17 7.4375C22.6313 7.4375 28.5813 11.6131 30.7382 17C28.5813 22.3869 22.6313 26.5625 17 26.5625Z" fill="#545454"/>
<path id="Vector_2" d="M17 10.625C15.7391 10.625 14.5066 10.9989 13.4582 11.6994C12.4099 12.3999 11.5928 13.3955 11.1103 14.5604C10.6278 15.7253 10.5015 17.0071 10.7475 18.2437C10.9935 19.4803 11.6006 20.6162 12.4922 21.5078C13.3838 22.3994 14.5197 23.0065 15.7563 23.2525C16.9929 23.4985 18.2747 23.3722 19.4396 22.8897C20.6045 22.4072 21.6001 21.5901 22.3006 20.5418C23.0011 19.4934 23.375 18.2609 23.375 17C23.375 15.3092 22.7034 13.6877 21.5078 12.4922C20.3123 11.2967 18.6908 10.625 17 10.625ZM17 21.25C16.1594 21.25 15.3377 21.0007 14.6388 20.5337C13.9399 20.0667 13.3952 19.403 13.0735 18.6264C12.7518 17.8498 12.6677 16.9953 12.8317 16.1709C12.9957 15.3464 13.4004 14.5892 13.9948 13.9948C14.5892 13.4004 15.3464 12.9956 16.1709 12.8317C16.9953 12.6677 17.8498 12.7518 18.6264 13.0735C19.403 13.3952 20.0668 13.9399 20.5337 14.6388C21.0007 15.3377 21.25 16.1594 21.25 17C21.25 18.1272 20.8022 19.2082 20.0052 20.0052C19.2082 20.8022 18.1272 21.25 17 21.25Z" fill="#545454"/>
</g>
</svg>
