<svg width="17" height="19" viewBox="0 0 17 19" fill="none" xmlns="http://www.w3.org/2000/svg">
<path d="M10.5829 9.5V17.7083C10.6245 18.0208 10.5204 18.3542 10.2808 18.5729C10.1844 18.6695 10.0699 18.7461 9.94393 18.7984C9.81791 18.8506 9.68283 18.8775 9.5464 18.8775C9.40998 18.8775 9.27489 18.8506 9.14888 18.7984C9.02286 18.7461 8.90839 18.6695 8.81203 18.5729L6.71828 16.4792C6.60467 16.3681 6.51828 16.2323 6.46588 16.0823C6.41347 15.9323 6.39647 15.7722 6.41619 15.6146V9.5H6.38494L0.384943 1.8125C0.215785 1.59534 0.139457 1.32006 0.172639 1.0468C0.20582 0.773544 0.345813 0.524527 0.562026 0.354167C0.759943 0.208333 0.978693 0.125 1.20786 0.125H15.7912C16.0204 0.125 16.2391 0.208333 16.437 0.354167C16.6532 0.524527 16.7932 0.773544 16.8264 1.0468C16.8596 1.32006 16.7833 1.59534 16.6141 1.8125L10.6141 9.5H10.5829Z" fill="white"/>
</svg>
