<svg width="49" height="49" viewBox="0 0 49 49" fill="none" xmlns="http://www.w3.org/2000/svg">
<g id="ri:toggle-fill">
<path id="Vector" d="M16.3334 10.2083H32.6667C34.5436 10.2083 36.402 10.578 38.1359 11.2962C39.8699 12.0144 41.4454 13.0672 42.7725 14.3943C44.0996 15.7214 45.1523 17.2969 45.8705 19.0308C46.5887 20.7648 46.9584 22.6232 46.9584 24.5C46.9584 26.3768 46.5887 28.2352 45.8705 29.9692C45.1523 31.7031 44.0996 33.2786 42.7725 34.6057C41.4454 35.9328 39.8699 36.9856 38.1359 37.7038C36.402 38.422 34.5436 38.7917 32.6667 38.7917H16.3334C14.4566 38.7917 12.5982 38.422 10.8642 37.7038C9.13029 36.9856 7.55478 35.9328 6.22768 34.6057C4.90058 33.2786 3.84786 31.7031 3.12964 29.9692C2.41141 28.2352 2.04175 26.3768 2.04175 24.5C2.04175 22.6232 2.41141 20.7648 3.12964 19.0308C3.84786 17.2969 4.90058 15.7214 6.22768 14.3943C7.55478 13.0672 9.13029 12.0144 10.8642 11.2962C12.5982 10.578 14.4566 10.2083 16.3334 10.2083ZM32.6667 30.625C34.2912 30.625 35.8491 29.9797 36.9978 28.831C38.1464 27.6824 38.7917 26.1245 38.7917 24.5C38.7917 22.8756 38.1464 21.3176 36.9978 20.169C35.8491 19.0203 34.2912 18.375 32.6667 18.375C31.0423 18.375 29.4844 19.0203 28.3357 20.169C27.1871 21.3176 26.5417 22.8756 26.5417 24.5C26.5417 26.1245 27.1871 27.6824 28.3357 28.831C29.4844 29.9797 31.0423 30.625 32.6667 30.625Z" fill="#13AF36"/>
</g>
</svg>
