<svg width="49" height="49" viewBox="0 0 49 49" fill="none" xmlns="http://www.w3.org/2000/svg">
<g id="ri:toggle-fill">
<path id="Vector" d="M32.6666 10.2083H16.3333C14.4564 10.2083 12.598 10.578 10.8641 11.2962C9.13013 12.0144 7.55463 13.0672 6.22752 14.3943C4.90042 15.7214 3.8477 17.2969 3.12947 19.0308C2.41125 20.7648 2.04159 22.6232 2.04159 24.5C2.04159 26.3768 2.41125 28.2352 3.12947 29.9692C3.8477 31.7031 4.90042 33.2786 6.22752 34.6057C7.55463 35.9328 9.13013 36.9856 10.8641 37.7038C12.598 38.422 14.4564 38.7917 16.3333 38.7917H32.6666C34.5434 38.7917 36.4018 38.422 38.1358 37.7038C39.8697 36.9856 41.4452 35.9328 42.7723 34.6057C44.0994 33.2786 45.1521 31.7031 45.8704 29.9692C46.5886 28.2352 46.9583 26.3768 46.9583 24.5C46.9583 22.6232 46.5886 20.7648 45.8704 19.0308C45.1521 17.2969 44.0994 15.7214 42.7723 14.3943C41.4452 13.0672 39.8697 12.0144 38.1358 11.2962C36.4018 10.578 34.5434 10.2083 32.6666 10.2083ZM16.3333 30.625C14.7088 30.625 13.1509 29.9797 12.0022 28.831C10.8536 27.6824 10.2083 26.1245 10.2083 24.5C10.2083 22.8756 10.8536 21.3176 12.0022 20.169C13.1509 19.0203 14.7088 18.375 16.3333 18.375C17.9577 18.375 19.5156 19.0203 20.6643 20.169C21.8129 21.3176 22.4583 22.8756 22.4583 24.5C22.4583 26.1245 21.8129 27.6824 20.6643 28.831C19.5156 29.9797 17.9577 30.625 16.3333 30.625Z" fill="#AF1313"/>
</g>
</svg>
